# xmcd CD database file
#
# Track frame offsets:
#	150
#	11918
#	23994
#	34892
#	46802
#	60853
#	72937
#	86293
#	100204
#	112368
#	125519
#	138543
#	150931
#	164929
#	176330
#	190585
#	205479
#	216976
#
# Disc length: 3071 seconds
#
# Revision: 4
# Processed by: cddbd v1.5.2PL0 Copyright (c) Steve Scherf et al.
# Submitted via: CDex 1.51
#
DISCID=000bfd12
DTITLE=Count Basie - Vol.04 - Music Makers
DYEAR=1900
DGENRE=Jazz
TTITLE0=Wiggle Woogie
TTITLE1=I'll Forget
TTITLE2=It's Square But It Rocks
TTITLE3=You Lied To Me
TTITLE4=Beau Brummel
TTITLE5=Music Makers
TTITLE6=Jump The Blues Away
TTITLE7=Deep In The Blues
TTITLE8=The Jitters
TTITLE9=Tuesday At Ten
TTITLE10=Undecided Blues
TTITLE11=I Do Mean You
TTITLE12=9.20 Special
TTITLE13=H And J
TTITLE14=Feelin' The Bean
TTITLE15=Going To Chicago Blues
TTITLE16=You Betcha My Life
TTITLE17=Down, Down, Down
EXTD=
EXTT0=
EXTT1=
EXTT2=
EXTT3=
EXTT4=
EXTT5=
EXTT6=
EXTT7=
EXTT8=
EXTT9=
EXTT10=
EXTT11=
EXTT12=
EXTT13=
EXTT14=
EXTT15=
EXTT16=
EXTT17=
PLAYORDER=
